<svg id="Layer_1" data-name="Layer 1" xmlns="http://www.w3.org/2000/svg" viewBox="0 0 150 150"><defs><style>.cls-1{fill:#0133ea;}</style></defs><polygon class="cls-1" points="14.08 35.55 52.49 99.84 67.12 75.69 46.09 35.55 14.08 35.55"/><polyline class="cls-1" points="54.69 149.22 82.67 149.22 82.67 104.32"/><rect class="cls-1" x="72.68" y="33.73" width="4.53" height="80.25" rx="2.26" transform="translate(49.89 -28.34) rotate(31.64)"/><rect class="cls-1" x="78.87" y="27.09" width="4.72" height="106.18" rx="2.36" transform="translate(54.14 -30.7) rotate(31.64)"/><rect class="cls-1" x="80.68" y="39.4" width="4.72" height="109.09" rx="2.36" transform="translate(61.63 -29.6) rotate(31.64)"/><path class="cls-1" d="M131.74,11.28a30.76,30.76,0,0,1-3.47,4.09h0l.14.45,6,18a1.84,1.84,0,0,1-1,2.25,1.73,1.73,0,0,1-.77.17,1.85,1.85,0,0,1-1.55-.84l-7.78-12.08-4.86,5.07,1.2,7.25-1.85.84-3.63-6.1L107,28.87l.17-2,7.27-1.24,3.19-6.27-14-3.35a1.88,1.88,0,0,1-1.39-1.8V14a1.82,1.82,0,0,1,1.8-1.65L123,12.07h.48a29.86,29.86,0,0,1,2.77-4.73l3.49-4.87a4.06,4.06,0,0,1,4.91-1.36,4.07,4.07,0,0,1,.5,5.31Z"/></svg>